<?xml version="1.0" encoding="utf-8"?>
<!-- Generator: Adobe Illustrator 16.0.0, SVG Export Plug-In . SVG Version: 6.00 Build 0)  -->
<!DOCTYPE svg PUBLIC "-//W3C//DTD SVG 1.1//EN" "http://www.w3.org/Graphics/SVG/1.1/DTD/svg11.dtd">
<svg version="1.1" id="Layer_1" xmlns="http://www.w3.org/2000/svg" xmlns:xlink="http://www.w3.org/1999/xlink" x="0px" y="0px"
	 width="100%" height="100%" viewBox="0 0 1500 1500" enable-background="new 0 0 1500 1500" xml:space="preserve">
<g>
	<g>
		<path d="M1480.699,619.564H19.301c-1.822,5.124-2.997,10.559-2.997,16.304c0,116.868,95.086,211.957,211.957,211.957
			c66.554,0,125.968-30.899,164.856-79.034c41.883,48.135,105.867,79.034,177.536,79.034c72.753,0,137.517-31.896,179.347-81.284
			c41.83,49.393,106.594,81.284,179.347,81.284c71.666,0,135.653-30.899,177.536-79.034c38.889,48.135,98.303,79.034,164.856,79.034
			c116.868,0,211.957-95.086,211.957-211.957C1483.696,630.123,1482.521,624.688,1480.699,619.564z"/>
	</g>
</g>
<g>
	<g>
		<polygon points="953.133,0 798.914,0 798.914,521.739 1040.086,521.739 		"/>
	</g>
</g>
<g>
	<g>
		<path d="M1312.787,88.242c-0.762-2.452-1.72-4.84-2.865-7.102C1284.923,31.078,1234.641,0,1178.657,0h-126.354l86.953,521.739
			h310.696L1312.787,88.242z"/>
	</g>
</g>
<g>
	<g>
		<path d="M321.343,0C265.36,0,215.077,31.078,190.078,81.141c-1.148,2.259-2.104,4.649-2.865,7.102L50.045,521.739h310.696
			L447.694,0H321.343z"/>
	</g>
</g>
<g>
	<g>
		<polygon points="546.87,0 459.914,521.739 701.086,521.739 701.086,0 		"/>
	</g>
</g>
<g>
	<g>
		<path d="M1271.739,945.653c-60.063,0-117.634-17.194-166.834-48.785c-51.813,31.559-112.444,48.785-175.563,48.785
			c-64.77,0-126.736-18.063-179.347-51.146c-52.608,33.088-114.577,51.146-179.347,51.146c-63.114,0-123.747-17.229-175.563-48.785
			c-49.201,31.591-106.771,48.785-166.834,48.785c-40.324,0-78.762-7.98-114.129-22.063v429.668
			c0,80.915,65.824,146.739,146.739,146.739h978.261c80.915,0,146.739-65.824,146.739-146.739V923.593
			C1350.501,937.673,1312.063,945.653,1271.739,945.653z M1092.393,1402.175c-107.854,0-195.646-87.797-195.646-195.646
			c0-107.856,87.797-195.653,195.646-195.653c26.461,0,52.16,5.253,76.236,15.479c24.838,10.604,36.398,39.354,25.793,64.196
			c-10.605,24.744-39.264,36.398-64.201,25.793c-11.845-5.063-24.645-7.644-37.828-7.644c-53.977,0-97.824,43.849-97.824,97.814
			c0,53.979,43.854,97.825,97.824,97.825c36.111,0,67.731-19.679,84.738-48.914h-35.824c-27.035,0-48.914-21.876-48.914-48.914
			c0-27.035,21.876-48.914,48.914-48.914h97.825c27.035,0,48.914,21.876,48.914,48.914
			C1288.043,1314.378,1200.249,1402.175,1092.393,1402.175z"/>
	</g>
</g>
</svg>
